<svg width="17" height="15" viewBox="0 0 17 15" fill="none" xmlns="http://www.w3.org/2000/svg">
<path d="M8.49219 0C4.07388 0 0.492188 2.86905 0.492188 6.40814C0.492188 8.69624 1.98957 10.7039 4.24203 11.8376C4.1195 12.267 3.45457 14.5997 3.42811 14.783C3.42811 14.783 3.41219 14.9207 3.49996 14.9732C3.58773 15.0257 3.69096 14.9849 3.69096 14.9849C3.94265 14.9492 6.60965 13.046 7.07126 12.7155C7.53242 12.7818 8.00726 12.8163 8.49219 12.8163C12.9105 12.8163 16.4922 9.94732 16.4922 6.40814C16.4922 2.86905 12.9105 0 8.49219 0Z" fill="#212121"/>
<path d="M4.0687 8.64625C3.81416 8.64625 3.60716 8.44541 3.60716 8.19846V5.41287H2.88701C2.63724 5.41287 2.43408 5.20687 2.43408 4.95375C2.43408 4.70063 2.63731 4.49463 2.88701 4.49463H5.25039C5.50016 4.49463 5.70331 4.70063 5.70331 4.95375C5.70331 5.20687 5.50008 5.41287 5.25039 5.41287H4.53024V8.19846C4.53024 8.44541 4.32324 8.64625 4.0687 8.64625ZM8.11577 8.64015C7.92331 8.64015 7.77608 8.56075 7.7317 8.43306L7.50316 7.82522L6.09577 7.82514L5.86708 8.43337C5.82285 8.56083 5.6757 8.64015 5.48324 8.64015C5.382 8.64026 5.28193 8.61819 5.18985 8.57544C5.06262 8.51582 4.94031 8.35186 5.08047 7.90962L6.18447 4.9575C6.26224 4.73298 6.49847 4.50166 6.79908 4.49471C7.10054 4.50158 7.33677 4.73298 7.4147 4.95797L8.51824 7.90876C8.6587 8.35202 8.53639 8.51605 8.40916 8.57552C8.31706 8.61819 8.217 8.64023 8.11577 8.64015C8.11577 8.64015 8.1157 8.64015 8.11577 8.64015ZM7.26047 6.99466L6.79947 5.66419L6.33847 6.99466H7.26047ZM9.26101 8.57787C9.01708 8.57787 8.8187 8.385 8.8187 8.14805V4.96352C8.8187 4.70493 9.03008 4.49463 9.28985 4.49463C9.54962 4.49463 9.76101 4.70493 9.76101 4.96352V7.71824H10.7418C10.9857 7.71824 11.1841 7.91111 11.1841 8.14805C11.1841 8.385 10.9857 8.57787 10.7418 8.57787H9.26101ZM11.8252 8.64015C11.5706 8.64015 11.3636 8.42985 11.3636 8.17126V4.96352C11.3636 4.70493 11.5706 4.49463 11.8252 4.49463C12.0797 4.49463 12.2867 4.70493 12.2867 4.96352V5.97132L13.5744 4.66312C13.6406 4.59583 13.7316 4.55879 13.8304 4.55879C13.9456 4.55879 14.0613 4.60927 14.148 4.69727C14.2289 4.77932 14.2771 4.8849 14.2837 4.99454C14.2904 5.10512 14.2542 5.20648 14.1819 5.28002L13.1301 6.34838L14.2662 7.87743C14.3028 7.92648 14.3296 7.98245 14.3448 8.04208C14.36 8.10171 14.3634 8.16382 14.3548 8.22479C14.3465 8.28581 14.3265 8.34456 14.2957 8.39764C14.265 8.45073 14.2242 8.49708 14.1757 8.53403C14.0959 8.59566 13.9983 8.62891 13.8981 8.62866C13.8266 8.629 13.756 8.61232 13.6919 8.57995C13.6279 8.54759 13.5723 8.50044 13.5294 8.44228L12.447 6.98529L12.2869 7.14799V8.17103C12.2867 8.29539 12.238 8.41462 12.1515 8.50256C12.0649 8.59051 11.9476 8.63999 11.8252 8.64015Z" fill="#FFE812"/>
</svg>
