<svg width="31" height="30" viewBox="0 0 31 30" fill="none" xmlns="http://www.w3.org/2000/svg">
<rect x="1" y="0.5" width="29" height="29" rx="14.5" fill="#0043FF"/>
<rect x="1" y="0.5" width="29" height="29" rx="14.5" stroke="white"/>
<path d="M8 8.99505C8 8.58357 8.34148 8.25 8.74385 8.25H22.2561C22.667 8.25 23 8.58371 23 8.99505V21.0049C23 21.4164 22.6585 21.75 22.2561 21.75H8.74385C8.33304 21.75 8 21.4163 8 21.0049V8.99505ZM15.5 17.25C14.2573 17.25 13.25 16.2427 13.25 15C13.25 13.7573 14.2573 12.75 15.5 12.75C16.7427 12.75 17.75 13.7573 17.75 15C17.75 16.2427 16.7427 17.25 15.5 17.25ZM15.5 18.75C17.571 18.75 19.25 17.071 19.25 15C19.25 12.9289 17.571 11.25 15.5 11.25C13.4289 11.25 11.75 12.9289 11.75 15C11.75 17.071 13.4289 18.75 15.5 18.75ZM20 9.75V11.25H21.5V9.75H20Z" fill="white"/>
</svg>
