<svg width="100" height="69" viewBox="0 0 100 69" fill="none" xmlns="http://www.w3.org/2000/svg">
<path fill-rule="evenodd" clip-rule="evenodd" d="M78.5686 10.712C78.5686 16.6248 83.3628 21.4193 89.2831 21.4193C95.2033 21.4193 100 16.6248 100 10.712C100 4.79685 95.2033 0 89.2831 0C83.3652 0 78.5686 4.79447 78.5686 10.712ZM2.66088 69H95.3914C97.9266 69 98.8217 66.7229 97.3815 64.6338L63.5644 15.0045C62.1195 12.9153 59.6223 12.8178 58.0131 14.776L45.0086 30.6133C43.3946 32.5739 40.6142 32.7381 38.8265 30.9345L33.4119 25.5452C31.6241 23.7416 28.9675 24.1128 27.5083 26.1876L0.706489 64.6529C-0.755124 66.7325 0.125669 69 2.66088 69Z" fill="#E0E0E0"/>
</svg>
