<svg width="277" height="36" viewBox="0 0 277 36" fill="none" xmlns="http://www.w3.org/2000/svg">
<path d="M276.412 4.46021L265.443 18.8423V30.5398H259.422V18.8423L248.453 4.46021H255.932L262.605 13.3196L269.24 4.46021H276.412Z" fill="#0043FF"/>
<path d="M246.794 30.5398L244.455 25.017H232.681L230.341 30.5398H224.09L235.634 4.46021H241.77L253.314 30.5398H246.794ZM238.587 10.5582L234.79 20.0312H242.346L238.587 10.5582Z" fill="#0043FF"/>
<path d="M211.408 4.46021C215.601 4.46021 218.899 5.62356 221.303 7.95026C223.732 10.277 224.946 13.4602 224.946 17.5C224.946 21.5398 223.732 24.723 221.303 27.0497C218.899 29.3764 215.601 30.5398 211.408 30.5398H199.25V4.46021H211.408ZM210.794 25.4005C213.376 25.4005 215.358 24.723 216.739 23.3679C218.145 21.9872 218.848 20.0312 218.848 17.5C218.848 14.9687 218.145 13.0255 216.739 11.6704C215.358 10.2898 213.376 9.59941 210.794 9.59941H205.233V25.4005H210.794Z" fill="#0043FF"/>
<path d="M179.849 4.46021H185.832V30.5398H179.849V19.9929H166.503V30.5398H160.52V4.46021H166.503V14.8537H179.849V4.46021Z" fill="#0043FF"/>
<path d="M148.199 31C143.494 31 139.813 29.8111 137.153 27.4332C134.52 25.0554 133.203 21.7827 133.203 17.6151C133.203 13.4219 134.52 10.1108 137.153 7.68182C139.813 5.22727 143.392 4 147.892 4C151.523 4 154.706 4.8821 157.442 6.64631L155.678 11.4787C153.249 10.0213 150.807 9.29261 148.352 9.29261C145.565 9.29261 143.354 10.0341 141.717 11.517C140.107 13 139.301 15.0071 139.301 17.5384C139.301 20.0952 140.119 22.1023 141.756 23.5597C143.418 24.9915 145.693 25.7074 148.582 25.7074C151.318 25.7074 153.913 24.9531 156.368 23.4446L158.324 28.277C155.742 30.0923 152.367 31 148.199 31Z" fill="#0043FF"/>
<path d="M132.711 4.46021V9.59941H123.046V30.5398H117.063V9.59941H107.398V4.46021H132.711Z" fill="#0043FF"/>
<path d="M105.06 30.5398L102.721 25.017H90.9464L88.6069 30.5398H82.3555L93.8996 4.46021H100.036L111.58 30.5398H105.06ZM96.8527 10.5582L93.0558 20.0312H100.611L96.8527 10.5582Z" fill="#0043FF"/>
<path d="M80.2928 4.46021V30.5398H74.3098V11.517L66.064 30.5398H61.9603L53.7145 11.517V30.5398H48V4.46021H56.2841L64.1464 22.5625L71.9703 4.46021H80.2928Z" fill="#0043FF"/>
<path d="M18.0639 25.9315L25.2135 32.6772H36L31.5669 3.59992H25.2135L18.0639 12.0928L10.7685 3.59992H4.47376L0 32.6772H10.7685L18.0639 25.9315Z" fill="#0043FF"/>
<path d="M8.50293 20.6226L8.18785 18.4056L12.4649 17.6062L17.2595 19.197L8.50293 20.6226ZM28.4493 12.587H27.9789L27.9042 20.1672L26.0431 19.3994L23.0421 18.1615L18.63 18.8941L12.5389 16.835L8.21994 17.6338L8.29974 12.587H7.85973L6.91809 21.6725L23.0933 18.9374L24.8126 19.7218L18.0674 25.9442L19.4156 27.2209L24.9232 20.7034L28.8668 21.4652L28.4493 12.587Z" fill="white"/>
</svg>
